# xmcd CD database file
#
# Track frame offsets:
#	150
#	24355
#	45907
#	64991
#	84831
#	105055
#	128400
#	144144
#	166816
#	186571
#	206645
#	225417
#
# Disc length: 3279 seconds
#
# Revision: 3
# Processed by: cddbd v1.5.1PL2 Copyright (c) Steve Scherf et al.
# Submitted via: CDex 1.51
#
DISCID=850ccd0c
DTITLE=?????? - ether
DYEAR=2005
DGENRE=JPop
TTITLE0=????
TTITLE1=??????
TTITLE2=???
TTITLE3=????
TTITLE4=?????
TTITLE5=???
TTITLE6=??????
TTITLE7=???
TTITLE8=????
TTITLE9=3?9?
TTITLE10=??
TTITLE11=??????
EXTD=YEAR: 2005
EXTT0=
EXTT1=
EXTT2=
EXTT3=
EXTT4=
EXTT5=
EXTT6=
EXTT7=
EXTT8=
EXTT9=
EXTT10=
EXTT11=
PLAYORDER=
